HIERARCHY
ROOT Hips
{
  OFFSET 267.745 86.9975 -272.335
  CHANNELS 6 Xposition Yposition Zposition Zrotation Xrotation Yrotation
  JOINT LeftUpLeg
  {
    OFFSET 8.64259 1.95398 -2.38835
    CHANNELS 3 Zrotation Xrotation Yrotation
    JOINT LeftLeg
    {
      OFFSET 43.7702 0 0
      CHANNELS 3 Zrotation Xrotation Yrotation
      JOINT LeftFoot
      {
        OFFSET 40.6238 0 0
        CHANNELS 3 Zrotation Xrotation Yrotation
        JOINT LeftToeBase
        {
          OFFSET 12.7242 0 0
          CHANNELS 3 Zrotation Xrotation Yrotation
          End Site
          {
            OFFSET 0 0 0
          }
        }
      }
    }
  }
  JOINT RightUpLeg
  {
    OFFSET -8.2249 1.95398 -2.59336
    CHANNELS 3 Zrotation Xrotation Yrotation
    JOINT RightLeg
    {
      OFFSET 43.5653 0 0
      CHANNELS 3 Zrotation Xrotation Yrotation
      JOINT RightFoot
      {
        OFFSET 40.6238 0 0
        CHANNELS 3 Zrotation Xrotation Yrotation
        JOINT RightToeBase
        {
          OFFSET 12.7242 0 0
          CHANNELS 3 Zrotation Xrotation Yrotation
          End Site
          {
            OFFSET 0 0 0
          }
        }
      }
    }
  }
  JOINT Spine
  {
    OFFSET 0.165834 0.87714 6.61349
    CHANNELS 3 Zrotation Xrotation Yrotation
    JOINT Spine1
    {
      OFFSET 7.38963 1.71661e-005 0
      CHANNELS 3 Zrotation Xrotation Yrotation
      JOINT Spine2
      {
        OFFSET 11.9445 1.14441e-005 0
        CHANNELS 3 Zrotation Xrotation Yrotation
        JOINT Spine3
        {
          OFFSET 14.7254 4.19617e-005 0
          CHANNELS 3 Zrotation Xrotation Yrotation
          JOINT Spine4
          {
            OFFSET 10.9679 0 0
            CHANNELS 3 Zrotation Xrotation Yrotation
            JOINT RightShoulder
            {
              OFFSET 2.46616 -1.6653 3.69651
              CHANNELS 3 Zrotation Xrotation Yrotation
              JOINT RightArm
              {
                OFFSET 13.0012 0 0
                CHANNELS 3 Zrotation Xrotation Yrotation
                JOINT RightForeArm
                {
                  OFFSET 28.7848 1.52588e-005 0
                  CHANNELS 3 Zrotation Xrotation Yrotation
                  JOINT RightHand
                  {
                    OFFSET 26.5688 1.52588e-005 0
                    CHANNELS 3 Zrotation Xrotation Yrotation
                    End Site
                    {
                      OFFSET 0 0 0
                    }
                  }
                }
              }
            }
            JOINT LeftShoulder
            {
              OFFSET 2.38034 -1.29275 -3.7523
              CHANNELS 3 Zrotation Xrotation Yrotation
              JOINT LeftArm
              {
                OFFSET 16.3182 6.10352e-005 0
                CHANNELS 3 Zrotation Xrotation Yrotation
                JOINT LeftForeArm
                {
                  OFFSET 27.0901 0 0
                  CHANNELS 3 Zrotation Xrotation Yrotation
                  JOINT LeftHand
                  {
                    OFFSET 24.5451 1.52588e-005 0
                    CHANNELS 3 Zrotation Xrotation Yrotation
                    End Site
                    {
                      OFFSET 0 0 0
                    }
                  }
                }
              }
            }
            JOINT Neck
            {
              OFFSET 5.0226 -0.0266342 0
              CHANNELS 3 Zrotation Xrotation Yrotation
              JOINT Head
              {
                OFFSET 6.69364 2.86102e-005 0
                CHANNELS 3 Zrotation Xrotation Yrotation
                End Site
                {
                  OFFSET 0 0 0
                }
              }
            }
          }
        }
      }
    }
  }
}
MOTION
Frames:	18
Frame Time:	0.0416667
19.6274 94.2937 10.7274 97.3131 -29.5128 93.334 179.539 -0.539225 85.6823 -30.1261 34.2262 7.13249 68.6129 11.6848 17.1427 40.7255 -1.31489 -1.78677 177.69 13.3907 74.5198 -12.3555 -16.7983 -4.81465 52.8714 10.5536 39.4459 44.9131 -3.4959 8.40345 -0.509007 7.55943 -89.5258 11.7578 -0.789358 1.02875 0.0866936 -0.743307 1.06248 -22.4485 -1.06201 0.743965 -2.43581 -1.06203 0.743959 102.823 -49.4744 -81.1331 37.1107 -0.67774 1.70463 -3.7248 -20.9061 -17.5321 -14.1587 -0.783173 1.26944 -80.0071 -50.5119 93.6009 -24.7997 15.5664 -29.3625 18.6755 27.9508 -41.7057 -0.847978 -0.104679 -5.43361 -5.56875 9.0549 -4.62537 -26.7825 5.1307 21.5575 
21.168 93.8729 16.6463 96.0504 -23.3896 91.4049 177.624 -1.41143 87.1077 -32.1449 35.8126 10.4031 69.3306 12.2226 15.3572 45.9795 -1.88011 0.75461 177.367 14.2102 75.2066 -17.9596 -20.7642 -4.87519 57.0647 9.34027 34.1318 43.1614 -3.12545 10.1261 -0.0545342 7.59107 -89.6424 11.6922 0.0593462 0.705831 0.021128 0.0903337 0.702531 -22.5127 -0.155555 0.691029 -2.50005 -0.155528 0.691035 101.9 -48.9079 -82.5874 35.8614 -2.92634 0.537371 -2.93527 -21.8214 -16.4441 -15.7924 -0.955726 1.87164 -79.4286 -52.4668 94.5354 -25.292 10.3355 -27.2399 14.7806 34.1103 -31.6598 -2.97727 -0.0905522 -4.64602 -5.37132 12.0351 -4.41812 -28.8221 6.93616 25.116 
22.2809 93.8681 21.4506 94.3041 -15.0434 90.6218 171.416 3.33744 86.0628 -42.7328 30.0632 12.4723 66.9551 9.31528 9.41167 49.4306 -2.08538 3.62425 177.097 15.1678 76.9647 -26.6883 -15.4623 -4.74509 61.4591 8.28538 29.594 38.7295 -2.42001 6.97482 0.13283 7.63945 -89.9407 11.594 0.292077 0.0888915 -0.0769584 0.295698 0.0759452 -22.6122 0.251846 0.17256 -2.59957 0.251865 0.172565 101.255 -47.1669 -83.6375 34.9281 -5.39091 -1.29407 -1.75886 -18.5559 -16.9976 -16.1849 -1.00887 2.09222 -79.9476 -54.3321 93.8322 -27.8054 -1.55263 -24.4067 7.6867 38.5245 -13.4507 2.64404 -0.00710001 -3.00042 -5.67728 14.0683 -4.54412 -29.3877 8.10465 28.3858 
23.4061 94.1652 25.0589 92.7069 -4.46493 89.2627 168.65 15.3955 89.0706 -54.0913 17.8907 9.78817 62.5346 7.3631 11.1819 49.3353 -2.20062 1.42253 175.33 14.0109 77.9938 -29.9238 -9.28492 -3.49784 65.1444 7.78104 26.7202 35.8278 -1.84044 3.65258 0.12304 7.71865 -90.1576 11.4375 0.171206 -0.332218 -0.233448 0.156486 -0.339445 -22.7685 0.263157 -0.2654 -2.75589 0.263145 -0.265403 101.562 -46.5719 -83.1486 31.6747 -5.4584 -2.22263 -1.83371 -14.144 -20.3447 -15.2289 -0.790577 0.854877 -80.3101 -52.8816 93.2469 -30.7797 -9.73355 -22.9394 4.03151 41.1926 -0.819837 4.70387 0.0896947 -1.28879 -3.41438 13.9026 -6.23667 -29.0566 8.38613 27.9021 
24.9315 94.6915 27.4897 92.0407 3.82208 88.079 175.865 21.7379 87.5125 -53.5171 13.2936 4.93125 61.7974 5.93266 8.07766 50.2961 -2.4046 -0.0356339 172.837 11.8622 77.1336 -29.9914 -3.77983 -1.65175 66.2007 8.13977 26.6894 36.8484 -2.06863 4.73811 0.202467 7.83866 -90.1578 11.197 0.329677 -0.34639 -0.473983 0.31408 -0.360563 -23.0093 0.418506 -0.231306 -2.99665 0.41854 -0.231297 101.827 -46.5624 -82.7165 29.0032 -5.1328 -3.92475 -0.796011 -11.1512 -21.0232 -16.6729 -0.986673 1.70413 -80.2607 -52.243 93.2927 -26.3806 -10.0745 -16.5446 2.10069 43.8343 0.00440719 -3.0775 -0.0991019 -2.975 -2.19162 12.6266 -7.61242 -26.8639 7.91279 27.6505 
27.1829 95.2346 28.9548 90.9964 13.175 87.4142 -177.163 23.4946 85.6812 -42.6383 10.1649 0.658316 62.7993 5.68219 5.26083 45.7789 -1.87761 0.558498 170.754 8.12895 77.3877 -27.601 3.80834 -0.16008 66.491 8.53532 26.388 37.9948 -2.31081 5.87455 0.208592 7.80314 -90.2534 11.2679 0.297156 -0.534108 -0.403086 0.273376 -0.546674 -22.9379 0.443941 -0.42011 -2.92527 0.443956 -0.420104 101.838 -46.0025 -82.7022 28.0695 -4.68119 -3.71518 -0.331594 -10.1928 -20.8734 -16.9999 -0.890285 0.897096 -80.5234 -52.3662 92.9098 -23.3758 -8.56782 -9.64499 4.01209 42.7164 -5.69345 -4.32828 -0.102064 -3.67046 -2.02391 10.644 -6.89225 -24.7593 6.87559 24.9523 
29.6066 95.6752 29.1091 89.5286 21.062 86.9992 -174.87 22.2081 83.9479 -24.7103 3.92601 -1.9998 58.6345 2.60602 7.04746 41.5599 -1.43584 0.807697 169.539 4.57627 77.8074 -24.0148 10.5128 0.387058 64.8907 9.2322 27.8196 40.1868 -2.74878 4.68999 0.30218 7.72928 -90.2869 11.4163 0.467374 -0.618501 -0.254707 0.439695 -0.638476 -22.7898 0.631647 -0.449451 -2.77716 0.631663 -0.449442 102.082 -46.6521 -82.3014 27.2804 -4.69498 -4.20595 0.148092 -10.3093 -19.2961 -15.9789 -0.852451 1.03702 -80.343 -52.1753 93.168 -25.7496 -9.9353 -5.5782 5.88063 39.5262 -7.78561 -2.21314 -0.0926824 -3.20803 0.0406115 8.71799 -6.17116 -23.19 5.64976 22.8325 
32.5586 95.7341 28.1195 87.4013 27.2475 88.123 -177.521 20.8536 83.7976 -9.43922 -0.0779847 -1.49669 56.5391 1.02181 8.88831 38.2998 -1.13911 2.24492 169.247 1.28895 79.1955 -20.2257 16.4181 0.560856 61.9307 9.80849 28.0418 43.2004 -3.27391 6.15815 0.414195 7.62718 -90.2975 11.6213 0.684475 -0.664034 -0.0496567 0.654595 -0.693517 -22.5856 0.852398 -0.427617 -2.57295 0.852415 -0.427615 102.159 -47.4149 -82.1763 27.3597 -5.74459 -5.16335 -0.611393 -12.7683 -18.5764 -13.6872 -0.725809 0.994444 -80.376 -52.8131 93.1471 -29.0268 -11.434 -3.6313 6.99013 41.3375 -7.78331 -5.28798 -0.0942217 -4.18748 2.75618 6.76838 -6.91687 -21.8491 4.31718 22.339 
36.5104 94.9655 25.4621 86.0378 32.8608 90.2 -178.254 21.2593 83.9809 -9.4507 5.39773 -1.18274 52.8873 -2.13865 10.753 38.9892 -1.1737 1.14895 168.99 -1.83205 80.4639 -20.0321 16.158 1.0548 59.4665 9.92612 26.6297 50.5578 -5.12324 2.35276 0.423818 7.59045 -90.3476 11.6949 0.679903 -0.764113 0.0239228 0.645637 -0.793302 -22.5117 0.878124 -0.524446 -2.49904 0.878119 -0.524449 102.434 -48.2406 -81.738 27.9723 -7.05644 -5.52813 -2.78972 -16.2914 -20.5093 -12.5653 -0.623741 0.604108 -80.3736 -53.6977 93.1894 -30.9412 -10.3745 -2.93895 8.14817 45.3648 -9.7702 -14.1911 0.025631 -5.49206 5.01265 5.4709 -7.53563 -21.9945 3.40205 21.2785 
40.7271 94.4047 21.1423 85.9502 38.1905 90.1004 -178.289 22.4444 81.8163 -18.976 9.78709 -1.32356 57.1243 0.222366 14.2517 35.2812 -0.418177 -5.33887 165.803 -3.37636 77.7886 -23.1345 13.057 1.93319 50.4441 11.3239 29.7925 60.6181 -7.59561 1.64544 0.326805 7.57874 -90.2004 11.7176 0.555981 -0.457902 0.0467165 0.535285 -0.481937 -22.4891 0.667881 -0.269646 -2.47649 0.66788 -0.269643 102.896 -48.9261 -81.0113 29.1496 -7.66809 -5.06362 -3.14419 -15.632 -21.7421 -12.8929 -0.478237 -0.9001 -80.2851 -54.014 93.3313 -32.2039 -8.21912 -3.6926 9.21788 45.8841 -12.408 -16.4743 0.100633 -6.01719 2.99722 4.08609 -6.93912 -20.5458 2.33182 19.6047 
45.2043 94.11 16.8242 88.3503 43.3623 90.1259 -178.153 19.1921 81.6994 -25.3725 14.5695 -0.610753 62.6245 4.10231 16.5616 31.6762 0.270025 -6.42431 164.761 1.75125 77.8396 -39.5266 1.95661 1.74235 44.7391 11.7869 23.992 57.4884 -7.75185 -3.49185 0.122221 7.64637 -90.2479 11.5811 0.127108 -0.506716 -0.0899241 0.104669 -0.511832 -22.6245 0.273516 -0.44509 -2.61181 0.273511 -0.445103 102.98 -48.6328 -80.8732 30.5659 -8.0898 -4.93654 -3.70001 -17.5103 -21.2413 -12.1597 -0.480814 -0.599263 -81.2174 -53.4604 91.9471 -32.4571 -5.6166 -5.22671 10.091 43.1006 -15.447 -8.92058 0.0384047 -6.24425 2.37714 3.03463 -6.72179 -21.1716 1.50309 17.0667 
49.7952 93.7432 12.6399 91.6944 49.1922 88.5114 -177.813 14.1216 82.3596 -29.1955 18.9493 0.135022 67.4764 7.56813 16.8105 32.941 0.192884 -8.13661 165.775 11.5338 80.4971 -58.0368 -10.6426 1.26241 45.6944 11.6133 22.0009 47.8988 -4.75132 -0.044322 -0.249212 7.77151 -90.1045 11.3304 -0.544538 -0.153578 -0.340444 -0.550768 -0.129473 -22.8763 -0.473205 -0.310138 -2.8636 -0.473191 -0.310137 103.316 -48.9065 -80.3462 32.7322 -6.78411 -6.68556 -2.48373 -20 -16.9921 -13.5557 -0.681966 0.637493 -82.5123 -52.6091 89.9878 -30.3593 -3.22727 -12.7646 8.20606 43.2847 -13.5156 -2.67438 -0.0889561 -4.16799 2.48511 2.00175 -8.26551 -21.1831 0.905852 15.9018 
54.4439 93.805 8.0691 94.2673 54.9517 88.0779 -177.998 8.73711 84.1314 -30.9518 23.9997 1.91604 69.617 10.6162 18.3993 36.0829 -0.387634 -8.08796 166.992 21.059 84.5141 -63.3188 -14.9556 1.56258 48.9415 10.6318 22.1406 43.387 -3.72969 -2.64749 -0.607449 7.79665 -90.1717 11.2799 -1.2888 -0.213921 -0.390437 -1.29696 -0.156998 -22.9298 -1.16493 -0.591426 -2.91718 -1.16493 -0.591423 103.288 -49.1985 -80.3975 33.547 -5.6243 -5.58521 -2.0359 -21.1844 -14.8484 -11.796 -0.586965 0.623208 -82.2561 -52.2903 90.342 -28.1137 0.122097 -20.8275 9.24028 40.7688 -16.7379 -3.07055 -0.095804 -3.50536 2.30295 1.22026 -8.0541 -20.3448 0.443326 14.2671 
59.248 94.6525 3.28381 97.749 58.194 86.7294 -177.893 1.16994 86.1123 -29.0895 26.306 4.07007 69.5869 11.2712 17.2292 39.5702 -1.09214 -5.42029 169.704 25.9748 87.8637 -53.3314 -7.94277 2.07925 53.3925 7.75316 17.4546 41.8746 -3.32358 -2.95641 -0.715598 7.95557 -90.3123 10.9597 -1.56912 -0.47171 -0.710388 -1.58836 -0.402187 -23.2508 -1.3548 -0.921549 -3.23817 -1.3548 -0.92156 102.987 -49.4157 -80.8751 33.2269 -4.75783 -3.58305 -1.68765 -22.6392 -13.4874 -11.4602 -0.623365 1.18486 -82.3019 -51.6469 90.2243 -26.384 4.27157 -26.2939 11.6833 34.9785 -24.376 -2.7895 -0.0900475 -4.89631 3.06172 0.512294 -7.25818 -19.8277 -0.0703955 12.826 
64.1576 95.2772 -2.00736 98.7075 61.849 84.8187 -177.09 -4.3352 87.7109 -26.1716 27.6083 4.57715 68.4131 9.59725 12.9573 41.4472 -1.39645 -2.29084 172.767 24.2813 86.7044 -25.7684 -2.78399 2.70552 50.8548 9.18491 18.2187 39.9682 -2.7807 -1.64683 -0.918776 7.93648 -90.2055 11.0005 -1.92423 -0.225254 -0.668982 -1.93226 -0.140328 -23.2141 -1.76753 -0.793321 -3.20144 -1.76753 -0.793323 102.592 -49.3926 -81.4965 33.7393 -2.30054 -0.903235 -1.08972 -23.8115 -11.0663 -11.004 -0.566903 0.811519 -81.9107 -50.7116 90.7398 -24.6551 9.50551 -30.6321 14.3605 32.9355 -31.4616 -1.32118 -0.0971377 -5.03575 3.09255 -0.286122 -6.93624 -19.9987 -0.737186 11.4897 
69.5097 94.9843 -8.06182 100.982 66.5121 81.9496 -176.007 -9.31927 90.2825 -26.5532 31.5572 5.79037 67.6171 8.3771 8.12639 44.6482 -1.7813 -0.591314 175.657 22.2704 85.2835 -11.3683 4.5142 1.06716 51.2587 10.9045 21.472 40.5463 -2.97818 -3.81108 -1.15811 7.94263 -90.1961 10.9882 -2.39644 -0.162429 -0.680513 -2.40127 -0.0567474 -23.2315 -2.23678 -0.875505 -3.21885 -2.23677 -0.875504 103.257 -48.9106 -80.4394 34.4622 1.83821 0.60553 -0.123103 -24.4559 -6.93747 -7.61782 -0.380746 0.698775 -82.2378 -49.1094 90.1188 -24.6058 13.9422 -33.643 17.3634 35.4624 -35.3656 -2.16297 -0.0918868 -6.29898 2.78633 -1.37336 -6.7647 -19.3105 -1.59853 10.0123 
76.0161 93.9807 -15.7582 103.537 68.9699 80.6228 -176.591 -10.5841 93.8946 -34.6321 31.4322 8.46458 62.3495 2.59989 -0.0743753 51.6598 -2.72928 -2.05149 175.576 22.4016 87.3758 -18.0274 -2.51622 1.82537 51.1014 10.6623 17.7598 37.8827 -2.24144 -1.82815 -1.33347 7.81275 -90.489 11.2418 -2.88126 -0.689106 -0.426072 -2.90881 -0.561536 -22.9808 -2.54091 -1.52366 -2.96811 -2.54091 -1.52367 103.489 -48.47 -80.0607 33.8581 3.95772 2.23041 0.26078 -26.7555 -4.77142 -7.07313 -0.3954 1.42824 -82.1203 -50.1216 90.3785 -26.242 14.4113 -30.2895 18.0022 38.1248 -35.1414 -4.7805 -0.0374919 -6.89264 2.79846 -1.34713 -5.2881 -20.1277 -1.8281 9.60424 
82.4977 93.0421 -23.5181 104.502 68.064 82.4377 179.144 -5.20679 96.8707 -47.264 25.3351 9.02313 42.2414 -9.2306 -14.2944 56.3589 -4.0198 -7.25535 175.677 24.4187 91.9183 -33.9042 -7.71305 2.76928 56.8398 7.76096 9.10544 28.1024 0.130232 0.516865 -1.09143 7.69954 -90.9523 11.4534 -2.61626 -1.63279 -0.215792 -2.68556 -1.51604 -22.7563 -2.0047 -2.34358 -2.74363 -2.0047 -2.34358 103.365 -48.6182 -80.2608 32.9104 2.65031 2.38204 -0.338402 -26.803 -6.69211 -8.23517 -0.502946 2.05246 -82.1823 -51.1122 90.3614 -30.1174 11.638 -23.5516 12.4776 39.6481 -26.7087 -3.23503 -0.0865815 -5.13776 3.6934 -1.05557 -4.36071 -20.8914 -1.72667 9.66281 
